<?xml version="1.0" standalone="no"?><!DOCTYPE svg PUBLIC "-//W3C//DTD SVG 1.1//EN" "http://www.w3.org/Graphics/SVG/1.1/DTD/svg11.dtd"><svg t="1683457174055" class="icon" viewBox="0 0 1024 1024" version="1.1" xmlns="http://www.w3.org/2000/svg" p-id="10474" xmlns:xlink="http://www.w3.org/1999/xlink" width="200" height="200"><path d="M512 625.28c-177.387 0-321.707-122.347-321.707-272.64s144.32-272.747 321.707-272.747 321.707 122.347 321.707 272.64-144.32 272.747-321.707 272.747z" fill="#ffb619" p-id="10475" data-spm-anchor-id="a313x.7781069.0.i174" class=""></path><path d="M512 88.427c173.013 0 313.28 118.293 313.28 264.213s-140.267 264.213-313.28 264.213-313.28-118.4-313.28-264.32 140.267-264.107 313.28-264.107M512 71.467c-182.080 0-330.24 126.080-330.24 281.173 0 154.987 148.16 281.173 330.24 281.173s330.24-126.080 330.24-281.173c0-155.093-148.16-281.173-330.24-281.173z" fill="#ffb619" p-id="10476" data-spm-anchor-id="a313x.7781069.0.i175" class="selected"></path><path d="M240.427 557.76c20.267 0 39.787 19.52 46.4 46.293 7.787 31.573-4.907 63.893-27.84 70.507-2.773 0.853-5.653 1.173-8.533 1.173-20.267 0-39.787-19.52-46.4-46.293-9.067-36.48 1.387-62.827 27.84-70.507 2.773-0.747 5.653-1.173 8.533-1.173M240.427 540.8c-4.373 0-8.853 0.64-13.333 1.92-31.893 9.28-51.947 40.747-39.467 90.88 8.747 35.307 35.2 59.2 62.827 59.2 4.373 0 8.853-0.64 13.333-1.92 31.893-9.28 49.6-49.92 39.467-90.88-8.64-35.307-35.2-59.2-62.827-59.2zM783.573 557.76c2.88 0 5.76 0.427 8.533 1.173 26.453 7.68 36.8 34.027 27.84 70.507-6.613 26.88-26.133 46.293-46.4 46.293-2.88 0-5.76-0.427-8.533-1.173-22.827-6.613-35.627-38.933-27.84-70.507 6.613-26.773 26.133-46.293 46.4-46.293M783.573 540.8c-27.627 0-54.187 23.893-62.827 59.2-10.133 40.96 7.573 81.6 39.467 90.88 4.373 1.28 8.853 1.92 13.333 1.92 27.627 0 54.187-23.893 62.827-59.2 12.373-50.133-7.573-81.6-39.467-90.88-4.48-1.28-8.853-1.92-13.333-1.92z" fill="#ffb619" p-id="10477" data-spm-anchor-id="a313x.7781069.0.i177" class="selected"></path><path d="M499.093 944.107c-133.44 0-241.92-108.587-241.92-241.92v-122.987c0-133.44 108.587-241.92 241.92-241.92h25.813c133.44 0 241.92 108.587 241.92 241.92v122.987c0 133.44-108.587 241.92-241.92 241.92h-25.813z" fill="#FFFFFF" p-id="10478"></path><path d="M524.907 345.707c128.747 0 233.493 104.747 233.493 233.493v122.987c0 128.747-104.747 233.493-233.493 233.493h-25.813c-128.747-0.107-233.493-104.747-233.493-233.493v-123.093c0-128.747 104.747-233.493 233.493-233.493h25.813M524.907 328.747h-25.813c-138.347 0-250.453 112.107-250.453 250.453v122.987c0 138.347 112.107 250.453 250.453 250.453h25.813c138.347 0 250.453-112.107 250.453-250.453v-123.093c0-138.24-112.107-250.347-250.453-250.347z" fill="#ffb619" p-id="10479" data-spm-anchor-id="a313x.7781069.0.i176" class="selected"></path><path d="M340.373 557.76c0 0 0 0 0 0 0 13.314 10.793 24.107 24.107 24.107 13.314 0 24.107-10.793 24.107-24.107 0 0 0 0 0 0 0 0 0 0 0 0 0-13.314-10.793-24.107-24.107-24.107-13.314 0-24.107 10.793-24.107 24.107 0 0 0 0 0 0z" fill="#ffb619" p-id="10480" data-spm-anchor-id="a313x.7781069.0.i180" class="selected"></path><path d="M397.333 665.707c-42.133 0-76.48-34.347-76.48-76.48 0-42.24 34.347-76.48 76.48-76.48s76.48 34.347 76.48 76.48c0 42.24-34.347 76.48-76.48 76.48zM397.333 529.707c-32.853 0-59.52 26.667-59.52 59.52s26.667 59.52 59.52 59.52c32.853 0 59.52-26.667 59.52-59.52 0-32.853-26.773-59.52-59.52-59.52z" fill="#ffb619" p-id="10481" data-spm-anchor-id="a313x.7781069.0.i181" class="selected"></path><path d="M569.813 557.76c0 13.314 10.793 24.107 24.107 24.107s24.107-10.793 24.107-24.107c0-13.314-10.793-24.107-24.107-24.107-13.314 0-24.107 10.793-24.107 24.107z" fill="#ffb619" p-id="10482" data-spm-anchor-id="a313x.7781069.0.i179" class="selected"></path><path d="M626.667 665.707c-42.133 0-76.48-34.347-76.48-76.48 0-42.24 34.347-76.48 76.48-76.48s76.48 34.347 76.48 76.48c0.107 42.24-34.24 76.48-76.48 76.48zM626.667 529.707c-32.853 0-59.52 26.667-59.52 59.52s26.667 59.52 59.52 59.52c32.853 0 59.52-26.667 59.52-59.52 0.107-32.853-26.667-59.52-59.52-59.52z" fill="#ffb619" p-id="10483" data-spm-anchor-id="a313x.7781069.0.i178" class="selected"></path><path d="M602.667 854.933c-18.027 0-32.64-14.613-32.64-32.64s14.613-32.64 32.64-32.64c18.027 0 32.64 14.613 32.64 32.64-0.107 18.027-14.72 32.64-32.64 32.64zM602.667 806.613c-8.64 0-15.68 7.040-15.68 15.68s7.040 15.68 15.68 15.68 15.68-7.040 15.68-15.68-7.040-15.68-15.68-15.68z" fill="#ffb619" p-id="10484" data-spm-anchor-id="a313x.7781069.0.i182" class="selected"></path></svg>