<?xml version="1.0" standalone="no"?><!DOCTYPE svg PUBLIC "-//W3C//DTD SVG 1.1//EN" "http://www.w3.org/Graphics/SVG/1.1/DTD/svg11.dtd"><svg t="1683457039330" class="icon" viewBox="0 0 1024 1024" version="1.1" xmlns="http://www.w3.org/2000/svg" p-id="9447" width="200" height="200" xmlns:xlink="http://www.w3.org/1999/xlink"><path d="M248.4 487.1c19.8 0 38.8 18.3 45.3 43.5 7.5 29.5-4.9 59.7-27 66-2.8 0.8-5.6 1.2-8.5 1.2-19.8 0-38.8-18.3-45.3-43.5-8.8-34.6 1-58.7 27-66 2.7-0.8 5.6-1.2 8.5-1.2m0-16.2c-4.3 0-8.6 0.6-12.9 1.8-31 8.7-50.4 38.4-38.4 85.6 8.5 33.2 34.2 55.8 61 55.8 4.3 0 8.6-0.6 12.9-1.8 31-8.7 48.2-47.1 38.4-85.6-8.5-33.3-34.2-55.8-61-55.8zM775.6 487.1c2.9 0 5.7 0.4 8.5 1.2 26 7.3 35.8 31.4 27 66-6.4 25.2-25.5 43.5-45.3 43.5-2.9 0-5.7-0.4-8.5-1.2-22.2-6.2-34.5-36.5-27-66 6.5-25.2 25.5-43.5 45.3-43.5m0-16.2c-26.8 0-52.6 22.5-61 55.8-9.8 38.6 7.4 76.9 38.4 85.6 4.3 1.2 8.6 1.8 12.9 1.8 26.8 0 52.6-22.5 61-55.8 12-47.2-7.4-76.9-38.4-85.6-4.2-1.3-8.6-1.8-12.9-1.8z" fill="#ffb619" p-id="9448" data-spm-anchor-id="a313x.7781069.0.i143" class="selected"></path><path d="M681.5 571.5H347c-59.1 0-107-47.9-107-107V196.1c0-60.4 49-109.4 109.4-109.4h329.8c60.4 0 109.4 49 109.4 109.4v268.4c-0.1 59.1-48 107-107.1 107z" fill="#ffb619" p-id="9449" data-spm-anchor-id="a313x.7781069.0.i141" class="selected"></path><path d="M718 557.2H310.5c-43.4 0-78.6-35.3-78.6-78.7V195.9c0-64.7 52.6-117.3 117.3-117.3h330.2c64.7 0 117.3 52.6 117.3 117.3v282.7c0 43.4-35.3 78.6-78.7 78.6zM349.2 94.9c-55.7 0-101 45.3-101 101v282.7c0 34.4 28 62.4 62.4 62.4H718c34.4 0 62.4-28 62.4-62.4V195.9c0-55.7-45.3-101-101-101H349.2z" fill="#ffb619" p-id="9450" data-spm-anchor-id="a313x.7781069.0.i142" class="selected"></path><path d="M525.7 937.3c-148.3 0-268.5-120.2-268.5-268.5V524.2c0-4.8 3.9-8.7 8.7-8.7h500.7c2.6 0 4.7 2.1 4.7 4.7v171.4c0 135.7-109.9 245.7-245.6 245.7z" fill="#ffb619" p-id="9451" data-spm-anchor-id="a313x.7781069.0.i153" class="selected"></path><path d="M519.8 945.4c-149.3 0-270.7-121.4-270.7-270.7v-17.9c0-82.4 67-149.4 149.4-149.4h296.1c46.8 0 84.9 38.1 84.9 84.9v93.4c0 143.2-116.5 259.7-259.7 259.7zM398.5 523.7c-73.4 0-133.1 59.7-133.1 133.1v17.9c0 140.3 114.2 254.5 254.5 254.5 134.2 0 243.4-109.2 243.4-243.4v-93.4c0-37.9-30.8-68.7-68.7-68.7H398.5z" fill="#ffb619" p-id="9452" data-spm-anchor-id="a313x.7781069.0.i154" class="selected"></path><path d="M514.3 838.8c-138.5 0-251.2-112.7-251.2-251.2V434.1c0-87.7 71.4-159.1 159.1-159.1h185.4c87.1 0 157.9 70.8 157.9 157.9v154.7c0 138.5-112.7 251.2-251.2 251.2z" fill="#FFFFFF" p-id="9453"></path><path d="M607.5 283.1c82.6 0 149.8 67.2 149.8 149.8v154.7c0 134-109 243.1-243.1 243.1s-243.1-109-243.1-243.1V434.1c0-83.3 67.7-151 151-151h185.4m0-16.3H422.2C329.8 266.8 255 341.7 255 434v153.5c0 143.2 116.1 259.3 259.3 259.3s259.3-116.1 259.3-259.3V432.9c0-91.7-74.3-166.1-166.1-166.1z" fill="#ffb619" p-id="9454" data-spm-anchor-id="a313x.7781069.0.i152" class="selected"></path><path d="M392.3 591.3c-35.5 0-64.3-28.8-64.3-64.3s28.8-64.3 64.3-64.3 64.3 28.8 64.3 64.3-28.8 64.3-64.3 64.3z m0-112.3c-26.5 0-48 21.5-48 48s21.5 48 48 48 48-21.5 48-48c0.1-26.5-21.5-48-48-48z" fill="#ffb619" p-id="9455" data-spm-anchor-id="a313x.7781069.0.i147" class="selected"></path><path d="M392.3 527m-19.6 0a19.6 19.6 0 1 0 39.2 0 19.6 19.6 0 1 0-39.2 0Z" fill="#ffb619" p-id="9456" data-spm-anchor-id="a313x.7781069.0.i145" class="selected"></path><path d="M636.2 591.3c-35.5 0-64.3-28.8-64.3-64.3s28.8-64.3 64.3-64.3 64.3 28.8 64.3 64.3-28.8 64.3-64.3 64.3z m0-112.3c-26.5 0-48 21.5-48 48s21.5 48 48 48 48-21.5 48-48c0.1-26.5-21.5-48-48-48z" fill="#ffb619" p-id="9457" data-spm-anchor-id="a313x.7781069.0.i148" class="selected"></path><path d="M636.2 527m-19.6 0a19.6 19.6 0 1 0 39.2 0 19.6 19.6 0 1 0-39.2 0Z" fill="#ffb619" p-id="9458" data-spm-anchor-id="a313x.7781069.0.i146" class="selected"></path><path d="M456.9 527h116.6" fill="#FFFFFF" p-id="9459"></path><path d="M573.5 535.2H457c-4.5 0-8.1-3.6-8.1-8.1s3.6-8.1 8.1-8.1h116.5c4.5 0 8.1 3.6 8.1 8.1s-3.6 8.1-8.1 8.1z" fill="#ffb619" p-id="9460" data-spm-anchor-id="a313x.7781069.0.i144" class="selected"></path><path d="M549.8 712.3c-3.3-9-6.1-13.9-14.9-16.4-7.2-2-18.9 11.6-21.3 11.6s-14.5-14.9-21.3-11.6c-7.1 3.4-9.9 9.4-14.9 16.4-0.4 0.5-53.1 42.6-42.7 57.7 7 10.1 40.1-23.9 78.8-23.9 35 0 71.4 33 78.8 23.9 16.2-19.4-42.3-57.1-42.5-57.7z" fill="#ffb619" p-id="9461" data-spm-anchor-id="a313x.7781069.0.i151" class="selected"></path><path d="M366.8 430.2h41.8" fill="#A6D296" p-id="9462"></path><path d="M408.6 438.4h-41.7c-4.5 0-8.1-3.6-8.1-8.1s3.6-8.1 8.1-8.1h41.7c4.5 0 8.1 3.6 8.1 8.1s-3.6 8.1-8.1 8.1z" fill="#ffb619" p-id="9463" data-spm-anchor-id="a313x.7781069.0.i150" class="selected"></path><path d="M627 430.2h41.8" fill="#A6D296" p-id="9464"></path><path d="M668.8 438.4H627c-4.5 0-8.1-3.6-8.1-8.1s3.6-8.1 8.1-8.1h41.7c4.5 0 8.1 3.6 8.1 8.1s-3.5 8.1-8 8.1z" fill="#ffb619" p-id="9465" data-spm-anchor-id="a313x.7781069.0.i149" class="selected"></path></svg>