<?xml version="1.0" standalone="no"?><!DOCTYPE svg PUBLIC "-//W3C//DTD SVG 1.1//EN" "http://www.w3.org/Graphics/SVG/1.1/DTD/svg11.dtd"><svg t="1683456864339" class="icon" viewBox="0 0 1024 1024" version="1.1" xmlns="http://www.w3.org/2000/svg" p-id="6444" xmlns:xlink="http://www.w3.org/1999/xlink" width="200" height="200"><path d="M874.24 441.92c0-200.533-157.333-362.987-351.467-362.987-205.973 0-373.013 172.587-373.013 385.387v109.227c0 54.72 14.72 105.707 39.893 149.653-13.547 6.187-23.147 20.16-23.147 36.48 0 10.24 3.84 19.413 9.92 26.453-7.787 7.36-12.8 17.707-12.8 29.547 0 10.88 4.267 20.8 11.093 27.947-6.827 7.253-11.093 17.067-11.093 27.947 0 9.28 3.2 17.707 8.32 24.533-1.6 4.16-2.56 8.747-2.56 13.44 0 19.627 15.36 35.52 34.347 35.52 18.987 0 34.347-15.893 34.347-35.52 0-5.653-1.387-10.987-3.733-15.68 4.16-6.4 6.613-14.080 6.613-22.293 0-10.88-4.267-20.8-11.093-27.947 6.827-7.253 11.093-17.067 11.093-27.947 0-10.24-3.84-19.413-9.92-26.453 1.707-1.6 3.2-3.413 4.587-5.227 51.413 51.84 121.6 83.947 199.040 83.947h160.64c75.733 0 144.427-31.36 194.667-82.027 0.96 1.067 1.813 2.24 2.88 3.307-6.080 7.040-9.92 16.213-9.92 26.453 0 10.88 4.267 20.8 11.093 27.947-6.827 7.253-11.093 17.067-11.093 27.947 0 8.213 2.453 15.893 6.613 22.293-2.24 4.8-3.733 10.027-3.733 15.68 0 19.627 15.36 35.52 34.347 35.52 18.987 0 34.347-15.893 34.347-35.52 0-4.8-0.96-9.28-2.56-13.44 5.12-6.827 8.32-15.253 8.32-24.533 0-10.88-4.267-20.8-11.093-27.947 6.827-7.253 11.093-17.067 11.093-27.947 0-11.733-5.013-22.187-12.8-29.547 6.080-7.040 9.92-16.213 9.92-26.453 0-15.467-8.64-28.8-21.12-35.413 23.893-42.453 37.867-91.733 37.867-144.427v-137.92z" fill="#ffb619" p-id="6445" data-spm-anchor-id="a313x.7781069.0.i97" class="selected"></path><path d="M820.267 953.707c-23.68 0-42.987-19.84-42.987-44.16 0-5.12 0.96-10.133 2.667-15.147-3.627-7.040-5.547-14.827-5.547-22.933 0-10.133 2.987-19.84 8.64-27.947-5.653-8.107-8.64-17.813-8.64-27.947 0-1.28 0-2.667 0.213-3.947-50.773 42.027-113.387 64.853-179.2 64.853h-160.64c-68.373 0-133.333-24.107-185.707-68.48 0.427 2.453 0.64 5.013 0.64 7.573 0 10.133-2.987 19.84-8.64 27.947 5.653 8.107 8.64 17.813 8.64 27.947 0 8-1.92 15.893-5.547 22.933 1.813 4.907 2.667 10.027 2.667 15.147 0 24.32-19.307 44.16-42.987 44.16s-42.987-19.84-42.987-44.16c0-4.16 0.533-8.213 1.707-12.16-4.907-7.787-7.467-16.64-7.467-25.813 0-10.133 2.987-19.84 8.64-27.947-5.653-8.107-8.64-17.813-8.64-27.947 0-10.88 3.733-21.547 10.347-30.080-4.8-7.787-7.467-16.747-7.467-25.92 0-16 7.68-30.72 20.16-39.68-24.107-44.907-36.907-95.36-36.907-146.453v-109.333c0-217.173 171.2-393.92 381.653-393.92 198.507 0 360.107 166.72 360.107 371.627v137.813c0 49.28-12.16 98.027-35.093 141.653 11.52 9.173 18.347 23.147 18.347 38.187 0 9.173-2.56 18.133-7.467 25.92 6.613 8.533 10.347 19.2 10.347 30.080 0 10.133-2.987 19.84-8.64 27.947 5.653 8.107 8.64 17.813 8.64 27.947 0 9.173-2.56 18.027-7.467 25.813 1.067 3.947 1.707 8 1.707 12.16-0.107 24.427-19.413 44.267-43.093 44.267zM790.507 773.12l6.080 7.147c1.387 1.6 1.707 2.133 2.24 2.56l6.080 5.653-5.44 6.293c-5.013 5.867-7.787 13.227-7.787 20.8 0 8.32 3.093 16.107 8.747 22.080l5.653 5.973-5.653 5.973c-5.653 5.867-8.747 13.76-8.747 22.080 0 6.293 1.813 12.373 5.227 17.6l2.667 4.053-2.133 4.373c-1.92 3.947-2.88 8-2.88 11.947 0 14.827 11.52 26.88 25.707 26.88s25.707-12.053 25.707-26.88c0-3.52-0.64-6.933-2.027-10.24l-1.813-4.48 2.987-3.947c4.373-5.653 6.613-12.373 6.613-19.307 0-8.32-3.093-16.107-8.747-22.080l-5.653-5.973 5.653-5.973c5.653-5.867 8.747-13.76 8.747-22.080 0-8.853-3.627-17.067-10.027-23.147l-6.080-5.653 5.44-6.293c5.013-5.867 7.787-13.227 7.787-20.8 0-11.733-6.293-22.4-16.533-27.733l-7.787-4.16 4.373-7.68c24-42.667 36.693-91.2 36.693-140.16v-137.92c0-195.413-153.813-354.347-342.827-354.347-200.96 0-364.373 168.96-364.373 376.64v109.227c0 50.88 13.44 101.12 38.72 145.28l4.693 8.213-8.64 3.947c-10.987 5.013-18.027 16.32-18.027 28.693 0 7.573 2.773 15.040 7.787 20.8l5.44 6.293-6.080 5.653c-6.507 6.080-10.027 14.293-10.027 23.253 0 8.32 3.093 16.107 8.747 22.080l5.653 5.973-5.653 5.973c-5.653 5.867-8.747 13.76-8.747 22.080 0 6.933 2.24 13.653 6.613 19.307l2.987 3.84-1.813 4.48c-1.28 3.307-2.027 6.827-2.027 10.24 0 14.827 11.52 26.88 25.707 26.88s25.707-12.053 25.707-26.88c0-4.053-0.96-8.107-2.88-11.947l-2.133-4.373 2.667-4.053c3.413-5.227 5.227-11.307 5.227-17.6 0-8.32-3.093-16.107-8.747-22.080l-5.653-5.973 5.653-5.973c5.653-5.867 8.747-13.76 8.747-22.080 0-7.573-2.773-15.040-7.787-20.8l-5.44-6.293 6.080-5.653c1.28-1.28 2.453-2.667 3.627-4.16l5.973-8 7.040 7.147c51.947 52.48 120.533 81.387 192.96 81.387h160.64c70.72 0 137.707-28.267 188.587-79.467l6.507-6.613z" fill="#ffb619" p-id="6446" data-spm-anchor-id="a313x.7781069.0.i98" class="selected"></path><path d="M247.68 683.84c-24.427 0-47.68-20.48-55.253-48.853-5.333-19.84-4.48-37.227 2.453-50.453 6.187-11.733 17.067-19.947 31.36-23.787 3.627-0.96 7.467-1.493 11.2-1.493 24.427 0 47.573 20.48 55.253 48.853 4.373 16.533 3.2 33.387-3.52 47.573-6.4 13.653-17.173 23.147-30.293 26.667-3.733 0.96-7.467 1.493-11.2 1.493z" fill="#FFFFFF" p-id="6447"></path><path d="M237.44 567.893c20.587 0 40.32 17.813 46.827 42.453 7.787 28.907-4.693 57.493-27.733 63.68-2.88 0.747-5.973 1.173-8.96 1.173-20.587 0-40.32-17.813-46.827-42.453-8.96-33.28 1.173-56.533 27.733-63.68 2.987-0.747 5.973-1.173 8.96-1.173M237.44 550.613c-4.48 0-8.96 0.533-13.44 1.813-32.32 8.64-52.48 38.080-39.893 84.8 8.853 32.853 35.627 55.253 63.573 55.253 4.48 0 8.96-0.533 13.44-1.813 32.32-8.64 50.133-46.613 39.893-84.8-8.853-32.853-35.627-55.253-63.573-55.253z" fill="#ffb619" p-id="6448" data-spm-anchor-id="a313x.7781069.0.i100" class="selected"></path><path d="M776.32 683.84c-3.733 0-7.573-0.533-11.2-1.493-13.12-3.52-23.893-13.013-30.293-26.667-6.72-14.187-7.893-31.040-3.52-47.573 7.573-28.267 30.827-48.853 55.253-48.853 3.733 0 7.573 0.533 11.2 1.493 31.36 8.427 44.053 36.16 33.813 74.24-7.573 28.267-30.827 48.853-55.253 48.853z" fill="#FFFFFF" p-id="6449"></path><path d="M786.56 567.893c2.987 0 6.080 0.427 8.96 1.173 8.32 2.24 19.627 7.467 25.92 19.52 5.867 11.2 6.507 26.453 1.813 44.16-6.613 24.533-26.347 42.453-46.827 42.453-2.987 0-6.080-0.427-8.96-1.173-10.667-2.88-19.413-10.667-24.747-21.973-5.76-12.373-6.827-27.093-2.987-41.6 6.507-24.747 26.24-42.56 46.827-42.56M786.56 550.613c-27.947 0-54.72 22.293-63.573 55.253-10.24 38.187 7.68 76.16 39.893 84.8 4.48 1.173 8.96 1.813 13.44 1.813 27.947 0 54.72-22.293 63.573-55.253 12.48-46.72-7.68-76.16-39.893-84.8-4.48-1.173-8.96-1.813-13.44-1.813z" fill="#ffb619" p-id="6450" data-spm-anchor-id="a313x.7781069.0.i101" class="selected"></path><path d="M510.187 916.373c-145.387 0-263.68-118.187-263.68-263.573v-169.707c0-20.16 16.427-36.693 36.693-36.693h252.693c36.587 0 70.72-16.427 93.547-45.013 1.6-1.92 3.627-2.24 4.693-2.24 0.96 0 3.413 0.32 5.013 2.773l0.747 1.173 1.067 0.853c63.893 50.667 134.187 113.813 136.32 127.573v117.44c0.213 147.52-119.787 267.413-267.093 267.413z" fill="#FFFFFF" p-id="6451"></path><path d="M634.133 409.493l1.6 1.28c58.667 46.507 125.333 105.813 133.12 122.347v115.947c0 142.613-116.053 258.667-258.667 258.667-140.587 0-254.933-114.347-254.933-254.933v-169.707c0-15.467 12.587-28.053 28.053-28.053h252.693c38.080 0.107 73.6-16.533 98.133-45.547M634.24 390.613c-4.267 0-8.427 1.813-11.413 5.44-21.12 26.347-53.013 41.707-86.827 41.707h-252.8c-24.96 0-45.333 20.267-45.333 45.333v169.707c0 150.293 121.92 272.213 272.213 272.213 152.427 0 275.947-123.52 275.947-275.947v-117.653c0-23.36-139.627-134.080-139.627-134.080-2.773-4.48-7.467-6.72-12.16-6.72z" fill="#ffb619" p-id="6452" data-spm-anchor-id="a313x.7781069.0.i99" class="selected"></path><path d="M337.28 580.16c0 10.898 10.983 19.733 24.533 19.733s24.533-8.835 24.533-19.733c0-10.898-10.983-19.733-24.533-19.733-13.55 0-24.533 8.835-24.533 19.733z" fill="#ffb619" p-id="6453" data-spm-anchor-id="a313x.7781069.0.i103" class="selected"></path><path d="M395.2 618.667c-42.987 0-77.867-28.907-77.867-64.427s34.987-64.427 77.867-64.427 77.867 28.907 77.867 64.427-34.88 64.427-77.867 64.427zM395.2 507.2c-33.493 0-60.693 21.12-60.693 47.147s27.2 47.147 60.693 47.147c33.387 0 60.693-21.12 60.693-47.147s-27.307-47.147-60.693-47.147z" fill="#ffb619" p-id="6454" data-spm-anchor-id="a313x.7781069.0.i102" class="selected"></path><path d="M570.88 580.16c0 10.898 10.983 19.733 24.533 19.733s24.533-8.835 24.533-19.733c0-10.898-10.983-19.733-24.533-19.733-13.55 0-24.533 8.835-24.533 19.733z" fill="#ffb619" p-id="6455" data-spm-anchor-id="a313x.7781069.0.i104" class="selected"></path><path d="M628.8 618.667c-42.987 0-77.867-28.907-77.867-64.427s34.987-64.427 77.867-64.427 77.867 28.907 77.867 64.427c0.107 35.52-34.88 64.427-77.867 64.427zM628.8 507.2c-33.387 0-60.693 21.12-60.693 47.147s27.2 47.147 60.693 47.147 60.693-21.12 60.693-47.147-27.2-47.147-60.693-47.147z" fill="#ffb619" p-id="6456" data-spm-anchor-id="a313x.7781069.0.i105" class="selected"></path><path d="M477.653 809.387c-13.227 0-21.867-1.387-22.187-1.387-4.693-0.853-7.787-5.227-7.040-9.92 0.853-4.693 5.333-7.787 9.92-7.040 4.053 0.64 98.56 15.573 136-66.56 2.027-4.373 7.147-6.293 11.413-4.267 4.373 1.92 6.293 7.147 4.267 11.413-31.147 68.267-97.707 77.76-132.373 77.76z" fill="#ffb619" p-id="6457" data-spm-anchor-id="a313x.7781069.0.i106" class="selected"></path></svg>